<svg xmlns="http://www.w3.org/2000/svg" width="29.952" height="23.616" viewBox="0 0 29.952 23.616">
  <path id="Path_90" data-name="Path 90" d="M10.112-20.416A6.307,6.307,0,0,1,5.44-22.368a6.78,6.78,0,0,1-1.92-4.96q0-3.52,2.816-8a31.739,31.739,0,0,1,8.832-8.7L16.7-38.464a25.49,25.49,0,0,0-3.9,6.336l3.712,5.568a5.939,5.939,0,0,1-.8,2.912,6.273,6.273,0,0,1-2.272,2.336A6.273,6.273,0,0,1,10.112-20.416Zm16.768,0a6.307,6.307,0,0,1-4.672-1.952,6.78,6.78,0,0,1-1.92-4.96q0-3.52,2.816-8a31.739,31.739,0,0,1,8.832-8.7l1.536,5.568a25.49,25.49,0,0,0-3.9,6.336L33.28-26.56a5.939,5.939,0,0,1-.8,2.912,6.273,6.273,0,0,1-2.272,2.336A6.273,6.273,0,0,1,26.88-20.416Z" transform="translate(-3.52 44.032)" fill="#f6a6ac"/>
</svg>
