<?xml version="1.0" standalone="no"?>
<!DOCTYPE svg PUBLIC "-//W3C//DTD SVG 20010904//EN"
 "http://www.w3.org/TR/2001/REC-SVG-20010904/DTD/svg10.dtd">
<svg version="1.0" xmlns="http://www.w3.org/2000/svg"
 width="234.000000pt" height="234.000000pt" viewBox="0 0 234.000000 234.000000"
 preserveAspectRatio="xMidYMid meet">
<metadata>
Created by potrace 1.14, written by Peter Selinger 2001-2017
</metadata>
<g transform="translate(0.000000,234.000000) scale(0.100000,-0.100000)"
fill="#000000" stroke="none">
<path d="M969 2320 c-252 -52 -419 -137 -591 -298 -329 -310 -449 -770 -312
-1205 76 -239 232 -453 434 -596 345 -243 777 -283 1154 -107 345 161 589 475
660 851 18 98 18 295 0 402 -70 401 -332 728 -712 888 -62 26 -179 61 -189 57
-2 0 -17 4 -35 9 -62 20 -314 19 -409 -1z m336 -575 c332 -85 525 -433 419
-757 -62 -191 -236 -347 -436 -391 -302 -67 -605 130 -684 443 -22 87 -15 241
16 327 51 146 165 273 305 338 111 52 269 69 380 40z"/>
<path d="M1064 1695 c-195 -41 -367 -209 -410 -402 -13 -59 -12 -183 2 -242
95 -409 603 -551 894 -250 93 96 145 220 149 354 3 96 -13 167 -54 251 -107
218 -346 337 -581 289z m239 -59 c275 -80 420 -383 310 -651 -21 -50 -86 -141
-127 -178 -110 -98 -289 -141 -433 -103 -240 64 -398 309 -354 551 51 279 336
459 604 381z"/>
<path d="M1084 1624 c-166 -34 -277 -134 -354 -319 -32 -77 -17 -253 30 -345
188 -369 727 -325 851 70 53 168 10 341 -117 468 -112 112 -260 158 -410 126z
m211 -22 c144 -42 254 -150 304 -300 16 -48 20 -79 17 -149 -8 -180 -93 -310
-255 -389 -244 -120 -539 13 -618 281 -14 47 -20 177 -10 220 26 108 103 221
190 277 115 73 251 96 372 60z"/>
<path d="M1165 1528 c-3 -23 -8 -52 -10 -63 -2 -11 -4 -23 -4 -27 -1 -4 -25
-13 -53 -22 -81 -23 -153 -102 -165 -180 -3 -17 -6 -32 -6 -33 -3 -2 -109 -16
-129 -17 -32 -1 -9 -13 29 -15 21 -1 47 -3 58 -5 11 -3 25 -5 31 -5 6 -1 14
-18 18 -39 11 -74 100 -163 176 -179 35 -7 42 -15 46 -57 11 -99 18 -118 22
-58 6 88 15 112 40 112 29 1 95 36 126 66 33 34 66 95 66 123 0 24 28 41 64
41 14 0 26 6 26 13 0 8 2 9 8 1 4 -7 15 -8 27 -3 l20 8 -20 1 c-112 10 -121
14 -128 55 -12 76 -104 164 -187 180 -31 6 -30 5 -37 76 -3 35 -7 66 -8 67 -2
2 -6 -16 -10 -40z m-25 -138 c0 -5 -8 -10 -17 -10 -10 0 -33 -9 -51 -20 -37
-23 -46 -25 -36 -9 6 11 81 48 97 49 4 0 7 -4 7 -10z m150 -28 c24 -14 39 -27
32 -30 -6 -2 -23 5 -37 17 -14 11 -39 23 -55 26 -17 4 -30 11 -30 16 0 14 36
2 90 -29z m-155 -29 c-11 -66 -12 -66 -50 -37 -39 29 -37 40 9 60 45 19 48 18
41 -23z m104 27 c5 0 20 -10 35 -21 l27 -21 -36 -25 c-19 -13 -39 -22 -43 -19
-4 2 -9 21 -10 42 -2 20 -6 42 -9 47 -4 6 1 8 11 4 10 -4 21 -7 25 -7z m-219
-39 c0 -5 -7 -14 -15 -21 -8 -7 -15 -18 -15 -24 -1 -6 -7 -24 -15 -41 -13 -28
-14 -28 -12 -5 5 48 57 131 57 91z m351 -58 c22 -52 22 -53 9 -53 -5 0 -10 6
-10 13 0 7 -9 30 -20 52 -23 45 -24 49 -9 39 6 -3 19 -26 30 -51z m-291 -30
c0 -5 -8 -9 -17 -9 -10 0 -30 -3 -45 -7 -35 -9 -37 12 -7 62 l20 34 25 -36
c13 -20 24 -40 24 -44z m266 18 l14 -34 -41 6 c-52 7 -55 10 -32 41 23 33 41
29 59 -13z m39 -112 c-7 -35 -39 -93 -55 -97 -12 -4 -11 -1 3 15 9 11 17 22
17 25 0 10 30 78 35 78 2 0 2 -9 0 -21z m-379 -97 c-7 -6 -46 75 -45 95 0 10
11 -6 25 -36 13 -30 22 -56 20 -59z m52 99 c20 -2 14 -26 -13 -51 -27 -25 -27
-25 -44 7 -20 38 -14 54 17 49 15 -2 33 -5 40 -5z m292 -17 c-22 -56 -30 -66
-46 -53 -9 7 -22 25 -30 40 -13 27 -13 28 14 31 76 9 72 10 62 -18z m-219 -71
c1 -21 3 -48 4 -60 1 -15 -3 -23 -13 -23 -20 0 -102 48 -102 60 0 5 21 -4 46
-20 26 -16 51 -27 57 -23 5 3 -3 11 -19 18 -16 7 -37 19 -48 27 -17 14 -17 16
15 36 48 31 59 28 60 -15z m129 15 c37 -27 37 -34 0 -53 -47 -24 -60 -20 -54
18 12 66 12 67 54 35z m54 -49 c-9 -15 -107 -60 -114 -52 -3 3 0 8 6 10 6 2
31 14 55 27 51 27 63 30 53 15z"/>
</g>
</svg>
